# xmcd
#
# Track frame offsets: 
#        150
#        16463
#        28658
#        46008
#        57843
#        74325
#        91595
#        105015
#        126770
#        144583
#        160975
#        175632
#        193334
#        207084
#        224371
#        243180
#        269098
#        289286
#        308288
#
# Disc length: 4447 seconds
#
# Revision: 0
# Processed by: cddbd v1.5.2PL0 Copyright (c) Steve Scherf et al.
# Submitted via: ExactAudioCopy v1.0b3
#
DISCID=06115d13
DTITLE=Various Artist - Golden Love ballads
DYEAR=2006
DGENRE=Pop
TTITLE0=The Righteous Brothers - Unchained Melody
TTITLE1=Brian Hyland - Sealed With A Kiss
TTITLE2=Captain and Tennille - Do That To Me One More Time
TTITLE3=The Platters - Only You (And You Alone)
TTITLE4=Boyzone - Love Me For A Reason
TTITLE5=Joe Cocker feat. Jennifer Warnes - Up Where We Belong
TTITLE6=The Troggs - Love Is All Around
TTITLE7=Black - Wonderful Life
TTITLE8=Kool and The Gang - Cherish
TTITLE9=Syreeta and Billy Preston - With You I'm Born Again
TTITLE10=Mama Cass - Dream A Little Dream Of Me
TTITLE11=Peaches and Herb - Reunited
TTITLE12=Diana Ross and Marvin Gaye - You Are Everything
TTITLE13=Maria McKee - Show Me Heaven
TTITLE14=Billie Myers - Kiss The Rain
TTITLE15=Extreme - More Than Words
TTITLE16=Lionel Richie and Diana Ross - Endless Love
TTITLE17=Michael Jackson - One Day In Your Life
TTITLE18=Barry White - Just The Way You Are
EXTD=
EXTT0=
EXTT1=
EXTT2=
EXTT3=
EXTT4=
EXTT5=
EXTT6=
EXTT7=
EXTT8=
EXTT9=
EXTT10=
EXTT11=
EXTT12=
EXTT13=
EXTT14=
EXTT15=
EXTT16=
EXTT17=
EXTT18=
PLAYORDER=
